<svg xmlns="http://www.w3.org/2000/svg" viewBox="0 0 64 64" role="img" aria-label="StudyMate logo">
  <defs>
    <linearGradient id="g" x1="0%" y1="0%" x2="100%" y2="100%">
      <stop offset="0%" stop-color="#6ac8ff"></stop>
      <stop offset="100%" stop-color="#3ca9ff"></stop>
    </linearGradient>
  </defs>
  <rect width="64" height="64" rx="14" fill="#0f1d2f"></rect>
  <rect x="6" y="6" width="52" height="52" rx="12" fill="url(#g)" opacity="0.18"></rect>
  <path d="M20 44c3.5 3.2 8.3 5 13 5 7.4 0 11.5-3.3 11.5-8.4 0-4.1-2.6-6.4-8-7.7l-4.4-1.1c-3.2-.8-4.5-1.8-4.5-3.6 0-2.1 1.9-3.6 5.2-3.6 3 0 5.9 1 8.5 2.8l2.4-4c-2.8-2-6.3-3.2-10.6-3.2-6.7 0-10.8 3.5-10.8 8.8 0 4.4 2.7 6.9 7.9 8.1l4.5 1.1c3.5.8 4.6 1.9 4.6 3.8 0 2.3-2 3.8-5.6 3.8-3.7 0-7.5-1.4-10.4-3.8z" fill="#eff7ff"></path>
</svg>